HIERARCHY
ROOT Hips
{
	OFFSET 0.000000 0.000000 0.000000
	CHANNELS 6 Xposition Yposition Zposition Yrotation Xrotation Zrotation 
	JOINT LeftHip
	{
		OFFSET 0.077119 0.000138 -0.000015
		CHANNELS 3 Yrotation Xrotation Zrotation
		JOINT LeftKnee
		{
			OFFSET 0.000000 -0.426014 0.000072
			CHANNELS 3 Yrotation Xrotation Zrotation
			JOINT LeftAnkle
			{
				OFFSET 0.000000 -0.387606 0.000906
				CHANNELS 3 Yrotation Xrotation Zrotation
				JOINT LeftToe
				{
					OFFSET 0.000000 -0.086837 0.172228
					CHANNELS 3 Yrotation Xrotation Zrotation
					End Site
					{
						OFFSET 0.000000 0.000000 0.000000
					}
				}
			}
		}
	}
	JOINT RightHip
	{
		OFFSET -0.077119 0.000158 -0.000018
		CHANNELS 3 Yrotation Xrotation Zrotation
		JOINT RightKnee
		{
			OFFSET 0.000000 -0.426014 0.000072
			CHANNELS 3 Yrotation Xrotation Zrotation
			JOINT RightAnkle
			{
				OFFSET 0.000000 -0.387606 0.000906
				CHANNELS 3 Yrotation Xrotation Zrotation
				JOINT RightToe
				{
					OFFSET 0.000000 -0.086837 0.172228
					CHANNELS 3 Yrotation Xrotation Zrotation
					End Site
					{
						OFFSET 0.000000 0.000000 0.000000
					}
				}
			}
		}
	}
	JOINT Chest
	{
		OFFSET 0.000000 0.093501 -0.010389
		CHANNELS 3 Yrotation Xrotation Zrotation
		JOINT Chest3
		{
			OFFSET 0.000000 0.181972 -0.008899
			CHANNELS 3 Yrotation Xrotation Zrotation
			JOINT Chest4
			{
				OFFSET 0.000000 0.086970 -0.000061
				CHANNELS 3 Yrotation Xrotation Zrotation
				JOINT Neck
				{
					OFFSET 0.000000 0.116360 0.000000
					CHANNELS 3 Yrotation Xrotation Zrotation
					JOINT Head
					{
						OFFSET 0.000000 0.079760 0.000228
						CHANNELS 3 Yrotation Xrotation Zrotation
						End Site
						{
							OFFSET 0.000000 0.000000 0.000000
						}
					}
				}
				JOINT LeftCollar
				{
					OFFSET 0.021903 0.065262 0.000000
					CHANNELS 3 Yrotation Xrotation Zrotation
					JOINT LeftShoulder
					{
						OFFSET 0.106219 0.000000 0.000000
						CHANNELS 3 Yrotation Xrotation Zrotation
						JOINT LeftElbow
						{
							OFFSET 0.266680 0.000000 0.000000
							CHANNELS 3 Yrotation Xrotation Zrotation
							JOINT LeftWrist
							{
								OFFSET 0.205457 0.000000 0.000046
								CHANNELS 3 Yrotation Xrotation Zrotation
								End Site
								{
									OFFSET 0.000000 0.000000 0.000000
								}
							}
						}
					}
				}
				JOINT RightCollar
				{
					OFFSET -0.021903 0.065262 0.000000
					CHANNELS 3 Yrotation Xrotation Zrotation
					JOINT RightShoulder
					{
						OFFSET -0.106219 0.000000 0.000000
						CHANNELS 3 Yrotation Xrotation Zrotation
						JOINT RightElbow
						{
							OFFSET -0.266680 0.000000 0.000000
							CHANNELS 3 Yrotation Xrotation Zrotation
							JOINT RightWrist
							{
								OFFSET -0.205457 0.000000 0.000046
								CHANNELS 3 Yrotation Xrotation Zrotation
								End Site
								{
									OFFSET 0.000000 0.000000 0.000000
								}
							}
						}
					}
				}
			}
		}
	}
}
MOTION
Frames: 5
Frame Time: 0.016667
0.000000 0.000000 0.000000 295.568638 16.710342 353.210674 358.190441 337.663184 5.114518 0.134082 8.852470 0.311303 4.625553 355.782026 2.156128 359.347285 2.248874 356.061317 349.095597 349.787634 358.477646 1.460906 8.826087 2.277040 352.873928 3.690914 11.353612 359.326017 350.110146 359.000311 1.162171 12.951167 357.097488 359.914786 5.772353 356.987725 14.926079 9.073849 359.489339 357.112658 14.209508 2.565924 355.096704 350.134790 3.691623 1.867093 354.653522 349.454209 5.860928 2.180108 289.364190 325.180068 307.504197 274.379749 351.106594 354.346479 37.075162 2.228012 359.495860 5.624574 35.641145 310.278855 62.349314 61.426679 325.675921 15.122999 355.235054 2.527079 322.970741 
0.000000 0.000000 0.000000 295.634101 16.871701 353.053889 358.059584 337.577479 5.263351 0.144221 8.886367 0.338319 4.628685 355.763866 2.222875 359.347636 2.198508 356.030707 349.043082 349.761036 358.633823 1.466309 8.770000 2.295063 352.824703 3.923577 11.325942 359.365111 350.033286 359.018121 1.164482 12.984970 357.098114 359.908091 5.805001 356.989164 15.120905 9.110640 359.525948 356.921119 14.035463 2.698533 354.789707 349.724100 4.041981 1.857545 354.631424 349.448263 5.841244 2.145133 289.332495 324.594979 307.498938 274.880555 351.265416 354.457561 37.007489 2.130488 359.622436 5.425369 37.374495 309.844053 60.264585 61.716868 326.778342 14.913681 353.436055 4.720039 324.696648 
0.000000 0.000000 0.000000 295.716432 17.044532 352.909576 357.928642 337.466208 5.406102 0.146941 8.931175 0.361643 4.623700 355.755360 2.271560 359.372322 2.140875 356.017317 348.980441 349.717637 358.786959 1.471506 8.720939 2.312084 352.768417 4.150799 11.308281 359.421017 349.955620 359.035481 1.167190 13.016662 357.101471 359.901271 5.835668 356.992853 15.266649 9.150169 359.557249 356.712524 13.858704 2.844970 354.499552 349.338013 4.354813 1.861890 354.599353 349.441674 5.856374 2.121852 289.338687 324.218381 307.471715 275.162202 351.415066 354.564312 36.992907 2.108413 359.586904 5.330039 38.225072 309.484296 59.293175 61.899327 326.809358 14.800456 353.028392 6.397800 325.930327 
0.000000 0.000000 0.000000 295.804729 17.222501 352.771524 357.801404 337.339415 5.547887 0.144767 8.986877 0.382010 4.612778 355.745171 2.301709 359.392805 2.079317 356.002833 348.911853 349.673550 358.935839 1.472085 8.661581 2.332545 352.710842 4.374451 11.293289 359.467214 349.874727 359.058602 1.170718 13.042367 357.108147 359.894131 5.860593 356.999219 15.390371 9.189350 359.586620 356.489561 13.686638 2.998782 354.164455 348.992215 4.671639 1.873657 354.557986 349.430620 5.899201 2.111117 289.372658 323.991135 307.431721 275.297748 351.558715 354.628357 37.027388 2.142020 359.411009 5.290651 38.373616 309.206502 59.134718 62.132477 326.255781 14.734905 353.938286 6.393861 326.565476 
0.000000 0.000000 0.000000 295.895368 17.397906 352.637248 357.676682 337.210321 5.690767 0.141543 9.052713 0.400949 4.600159 355.727475 2.326688 359.393325 2.009334 355.965909 348.846060 349.630818 359.085081 1.472819 8.610137 2.352695 352.656682 4.573074 11.267623 359.471914 349.789938 359.105024 1.175368 13.054001 357.116623 359.886932 5.872273 357.006839 15.494461 9.223961 359.613761 356.263366 13.536624 3.150981 353.757515 348.693423 5.029374 1.889915 354.507488 349.415890 5.973736 2.104857 289.423873 323.869287 307.397985 275.353575 351.699316 354.636318 37.094004 2.181558 359.063299 5.245179 38.218497 308.948931 59.444729 62.228466 325.402550 14.629453 355.256288 5.350257 326.687314 
